<svg width="18" height="18" viewBox="0 0 18 18" fill="none" xmlns="http://www.w3.org/2000/svg">
<path d="M9 0C7.21997 0 5.47991 0.527841 3.99987 1.51677C2.51983 2.50571 1.36628 3.91131 0.685088 5.55585C0.00389951 7.20038 -0.17433 9.00998 0.172937 10.7558C0.520203 12.5016 1.37737 14.1053 2.63604 15.364C3.89472 16.6226 5.49836 17.4798 7.24419 17.8271C8.99002 18.1743 10.7996 17.9961 12.4442 17.3149C14.0887 16.6337 15.4943 15.4802 16.4832 14.0001C17.4722 12.5201 18 10.78 18 9C18 6.61305 17.0518 4.32387 15.364 2.63604C13.6761 0.948211 11.387 0 9 0ZM13.814 5.581L8.814 12.581C8.72956 12.6993 8.6204 12.7977 8.49409 12.8695C8.36779 12.9414 8.22736 12.9849 8.08256 12.997C8.05469 12.999 8.02734 13 8 13C7.86868 13.0001 7.73864 12.9742 7.61732 12.9239C7.496 12.8736 7.38579 12.7999 7.293 12.707L4.293 9.707C4.10829 9.51891 4.00533 9.26549 4.00653 9.00188C4.00772 8.73826 4.11297 8.48578 4.29938 8.29937C4.48579 8.11297 4.73826 8.00772 5.00188 8.00652C5.2655 8.00533 5.51892 8.10829 5.707 8.293L7.87253 10.458L12.186 4.419C12.3401 4.20311 12.5736 4.05728 12.8353 4.01359C13.0969 3.9699 13.3651 4.03193 13.581 4.18603C13.7969 4.34012 13.9427 4.57367 13.9864 4.83529C14.0301 5.0969 13.9681 5.36516 13.814 5.58105V5.581Z" fill="#4971DF"/>
</svg>
